<svg width="268" height="112" viewBox="0 0 268 112" fill="none" xmlns="http://www.w3.org/2000/svg">
<path d="M3.72095 7.13714C2.72181 7.13714 1.86048 6.80639 1.11973 6.12749C0.378986 5.466 0 4.63043 0 3.62079C0 2.54152 0.378986 1.67113 1.11973 1.00964C1.86048 0.348153 2.73904 0 3.72095 0H62.6361C63.7041 0 64.6171 0.330745 65.3579 1.00964C66.0986 1.67113 66.4776 2.55892 66.4776 3.6382C66.4776 4.71747 66.0986 5.58786 65.3579 6.21453C64.6171 6.84121 63.7041 7.15454 62.6361 7.15454H3.72095V7.13714ZM33.2474 87.7346C32.0932 87.7346 31.1458 87.3516 30.3878 86.6031C29.6298 85.8545 29.2681 84.9667 29.2681 83.9745V4.14302H37.089V83.9745C37.089 84.9841 36.71 85.8545 35.9692 86.6031C35.2285 87.3516 34.3155 87.7346 33.2474 87.7346Z" fill="white"/>
<path d="M126.112 56.1138C126.112 62.5123 124.713 68.2447 121.896 73.346C119.098 78.4297 115.272 82.4266 110.42 85.3366C105.567 88.2466 100.041 89.6841 93.8417 89.6841C87.6427 89.6841 82.347 88.2291 77.4587 85.3366C72.5704 82.4266 68.7093 78.4297 65.8578 73.346C63.0063 68.2622 61.5894 62.5123 61.5894 56.1138C61.5894 49.7153 63.0063 43.8778 65.8578 38.8291C68.7093 33.7804 72.5704 29.7836 77.4587 26.8385C82.347 23.8934 87.8021 22.4209 93.8417 22.4209C99.8813 22.4209 105.567 23.8934 110.42 26.8385C115.272 29.7836 119.098 33.7804 121.896 38.8291C124.695 43.8778 126.112 49.6452 126.112 56.1138ZM118.46 56.1138C118.46 50.9775 117.398 46.4197 115.272 42.4228C113.147 38.4259 110.242 35.288 106.541 33.0266C102.839 30.7477 98.606 29.6258 93.8594 29.6258C89.1128 29.6258 85.11 30.7652 81.3552 33.0266C77.6181 35.3056 74.6603 38.4259 72.4995 42.4228C70.3388 46.4197 69.2407 50.9775 69.2407 56.1138C69.2407 61.2502 70.321 65.7905 72.4995 69.7523C74.6603 73.7141 77.6181 76.8345 81.3552 79.1484C85.0923 81.4624 89.2545 82.6194 93.8594 82.6194C98.4644 82.6194 102.857 81.4624 106.541 79.1484C110.242 76.8345 113.147 73.6966 115.272 69.7523C117.398 65.7905 118.46 61.2502 118.46 56.1138Z" fill="white"/>
<path d="M242.423 89.6841C236.075 89.6841 230.482 88.2995 225.627 85.513C220.772 82.7439 216.98 78.8708 214.27 73.911C211.559 68.9513 210.187 63.1503 210.187 56.4906C210.187 49.3402 211.559 43.2413 214.321 38.1939C217.083 33.1466 220.669 29.2559 225.061 26.5219C229.47 23.7879 234.137 22.4209 239.078 22.4209C242.697 22.4209 246.215 23.0693 249.646 24.3838C253.06 25.6807 256.114 27.626 258.79 30.1847C261.466 32.7435 263.611 35.8805 265.206 39.5784C266.819 43.2763 267.694 47.5701 267.866 52.4422C267.78 53.4587 267.368 54.3175 266.63 55.036C265.893 55.7545 265.018 56.1051 264.04 56.1051H214.51L213.034 49.2876H261.707L260.094 50.7948V48.2711C259.682 44.3103 258.413 40.9805 256.268 38.2465C254.124 35.5125 251.55 33.4094 248.548 31.9373C245.545 30.4651 242.389 29.7291 239.095 29.7291C236.624 29.7291 234.085 30.2373 231.495 31.2363C228.904 32.2527 226.554 33.83 224.46 35.9682C222.367 38.1063 220.652 40.8403 219.331 44.1701C218.01 47.5 217.358 51.4257 217.358 55.9649C217.358 60.9246 218.353 65.4287 220.326 69.4596C222.299 73.4904 225.164 76.6976 228.904 79.046C232.644 81.3945 237.122 82.5862 242.303 82.5862C245.185 82.5862 247.759 82.1656 250.023 81.3244C252.288 80.4831 254.312 79.3615 256.079 77.977C257.846 76.5925 259.305 75.1378 260.471 73.6306C261.381 72.877 262.238 72.4915 263.062 72.4915C263.971 72.4915 264.726 72.8245 265.344 73.508C265.961 74.1739 266.27 74.9451 266.27 75.7863C266.27 76.8028 265.858 77.679 265.035 78.4326C262.564 81.4646 259.356 84.0934 255.393 86.3192C251.447 88.5449 247.124 89.6665 242.423 89.6665V89.6841Z" fill="white"/>
<path d="M172.417 22.4209C178.332 22.4209 183.053 23.6268 186.598 26.0198C190.144 28.4128 192.681 31.6725 194.249 35.7801C195.816 39.8877 196.6 44.4476 196.6 49.4219V82.3821C196.6 83.4749 196.189 84.417 195.387 85.2272C194.585 86.0375 193.633 86.452 192.569 86.452C191.319 86.452 190.312 86.0375 189.547 85.2272C188.782 84.417 188.408 83.4561 188.408 82.3821V49.8365C188.408 46.2188 187.83 42.9213 186.654 39.9254C185.497 36.9483 183.613 34.5742 181.019 32.803C178.425 31.0318 174.973 30.1651 170.682 30.1651C166.838 30.1651 163.181 31.0507 159.729 32.803C156.277 34.5742 153.478 36.9483 151.332 39.9254C149.186 42.9025 148.104 46.2188 148.104 49.8365V101.954C148.104 103.047 147.693 103.989 146.891 104.799C146.088 105.609 145.137 106.024 144.073 106.024C142.823 106.024 141.815 105.609 141.05 104.799C140.285 103.989 139.912 103.028 139.912 101.954V28.5258C139.912 27.433 140.323 26.4908 141.125 25.6806C141.927 24.8704 142.916 24.4559 144.073 24.4559C145.23 24.4559 146.2 24.8704 146.965 25.6806C147.73 26.4908 148.104 27.4518 148.104 28.5258V39.9254L145.006 44.8056C145.193 41.9039 146.107 39.134 147.768 36.4584C149.428 33.7828 151.556 31.3898 154.149 29.2607C156.743 27.1315 159.635 25.4545 162.807 24.2486C165.98 23.0239 169.189 22.4209 172.417 22.4209Z" fill="white"/>
<path d="M138.364 110.081C144.336 109.164 148.683 105.168 148.072 101.154C147.461 97.1402 142.124 94.6297 136.152 95.5465C130.18 96.4633 125.833 100.46 126.444 104.474C127.055 108.488 132.391 110.998 138.364 110.081Z" fill="white"/>
<path d="M186.504 91.4817C192.476 90.5649 196.822 86.5679 196.212 82.5542C195.601 78.5406 190.264 76.0301 184.292 76.9469C178.319 77.8637 173.973 81.8607 174.583 85.8743C175.194 89.888 180.531 92.3985 186.504 91.4817Z" fill="white"/>
</svg>
