<svg width="169" height="71" viewBox="0 0 169 71" fill="none" xmlns="http://www.w3.org/2000/svg">
<path d="M2.33642 4.48054C1.70918 4.48054 1.16846 4.2729 0.703431 3.84671C0.238407 3.43144 0.000488281 2.90689 0.000488281 2.27305C0.000488281 1.59551 0.238407 1.0491 0.703431 0.633832C1.16846 0.218563 1.71999 0 2.33642 0H39.322C39.9925 0 40.5657 0.207635 41.0307 0.633832C41.4958 1.0491 41.7337 1.60644 41.7337 2.28398C41.7337 2.96153 41.4958 3.50793 41.0307 3.90135C40.5657 4.29476 39.9925 4.49147 39.322 4.49147H2.33642V4.48054ZM20.8725 55.0778C20.1479 55.0778 19.5531 54.8374 19.0773 54.3675C18.6014 53.8976 18.3743 53.3403 18.3743 52.7173V2.6009H23.2841V52.7173C23.2841 53.3512 23.0462 53.8976 22.5812 54.3675C22.1162 54.8374 21.543 55.0778 20.8725 55.0778Z" fill="white"/>
<path d="M79.1703 35.2274C79.1703 39.2442 78.2919 42.8429 76.524 46.0453C74.7673 49.2368 72.3656 51.7459 69.319 53.5728C66.2725 55.3996 62.8034 56.302 58.9119 56.302C55.0203 56.302 51.6958 55.3886 48.627 53.5728C45.5582 51.7459 43.1343 49.2368 41.3442 46.0453C39.5541 42.8539 38.6646 39.2442 38.6646 35.2274C38.6646 31.2105 39.5541 27.5459 41.3442 24.3764C43.1343 21.2069 45.5582 18.6978 48.627 16.849C51.6958 15.0001 55.1204 14.0757 58.9119 14.0757C62.7034 14.0757 66.2725 15.0001 69.319 16.849C72.3656 18.6978 74.7673 21.2069 76.524 24.3764C78.2808 27.5459 79.1703 31.1665 79.1703 35.2274ZM74.367 35.2274C74.367 32.0029 73.6998 29.1416 72.3656 26.6324C71.0313 24.1233 69.2079 22.1534 66.884 20.7337C64.5602 19.3031 61.9028 18.5988 58.923 18.5988C55.9431 18.5988 53.4303 19.3141 51.0731 20.7337C48.7271 22.1644 46.8702 24.1233 45.5137 26.6324C44.1572 29.1416 43.4679 32.0029 43.4679 35.2274C43.4679 38.4518 44.1461 41.3022 45.5137 43.7893C46.8702 46.2764 48.7271 48.2353 51.0731 49.688C53.4192 51.1407 56.0321 51.867 58.923 51.867C61.8139 51.867 64.5713 51.1407 66.884 49.688C69.2079 48.2353 71.0313 46.2654 72.3656 43.7893C73.6998 41.3022 74.367 38.4518 74.367 35.2274Z" fill="white"/>
<path d="M152.189 56.302C148.204 56.302 144.692 55.4329 141.644 53.6835C138.596 51.9452 136.216 49.5137 134.515 46.4001C132.813 43.2865 131.951 39.6447 131.951 35.4639C131.951 30.975 132.813 27.1463 134.547 23.9776C136.281 20.809 138.532 18.3665 141.289 16.6502C144.057 14.9339 146.986 14.0757 150.088 14.0757C152.361 14.0757 154.569 14.4828 156.723 15.3079C158.866 16.1221 160.783 17.3433 162.463 18.9496C164.144 20.556 165.49 22.5254 166.491 24.8468C167.504 27.1683 168.053 29.8638 168.161 32.9224C168.107 33.5605 167.849 34.0996 167.385 34.5507C166.922 35.0018 166.373 35.2219 165.759 35.2219H134.665L133.739 30.942H164.294L163.282 31.8882V30.3039C163.023 27.8174 162.226 25.727 160.88 24.0106C159.534 22.2943 157.918 20.974 156.034 20.0499C154.149 19.1257 152.167 18.6636 150.099 18.6636C148.548 18.6636 146.954 18.9827 145.328 19.6098C143.702 20.2479 142.226 21.2381 140.912 22.5804C139.598 23.9226 138.521 25.639 137.692 27.7294C136.862 29.8198 136.453 32.2843 136.453 35.1338C136.453 38.2475 137.078 41.075 138.316 43.6055C139.555 46.136 141.354 48.1494 143.702 49.6237C146.049 51.098 148.861 51.8461 152.113 51.8461C153.923 51.8461 155.538 51.5821 156.96 51.054C158.381 50.5259 159.652 49.8217 160.762 48.9526C161.871 48.0834 162.786 47.1702 163.519 46.224C164.09 45.7509 164.628 45.5089 165.145 45.5089C165.716 45.5089 166.19 45.7179 166.578 46.147C166.965 46.5651 167.159 47.0492 167.159 47.5773C167.159 48.2154 166.901 48.7655 166.384 49.2386C164.833 51.142 162.819 52.7923 160.331 54.1896C157.854 55.5869 155.14 56.291 152.189 56.291V56.302Z" fill="white"/>
<path d="M108.24 14.0757C111.953 14.0757 114.917 14.8327 117.143 16.335C119.368 17.8372 120.961 19.8836 121.945 22.4623C122.929 25.041 123.421 27.9035 123.421 31.0264V51.718C123.421 52.4041 123.164 52.9955 122.66 53.5041C122.156 54.0128 121.559 54.273 120.891 54.273C120.106 54.273 119.474 54.0128 118.993 53.5041C118.513 52.9955 118.279 52.3922 118.279 51.718V31.2866C118.279 29.0155 117.916 26.9454 117.178 25.0646C116.451 23.1957 115.268 21.7053 113.64 20.5934C112.012 19.4814 109.845 18.9373 107.15 18.9373C104.737 18.9373 102.441 19.4933 100.274 20.5934C98.1072 21.7053 96.3501 23.1957 95.003 25.0646C93.6559 26.9336 92.9765 29.0155 92.9765 31.2866V64.0047C92.9765 64.6908 92.7187 65.2822 92.215 65.7908C91.7113 66.2995 91.1139 66.5597 90.4462 66.5597C89.6614 66.5597 89.0288 66.2995 88.5485 65.7908C88.0683 65.2822 87.834 64.6789 87.834 64.0047V17.9082C87.834 17.2221 88.0917 16.6307 88.5954 16.1221C89.0991 15.6134 89.7199 15.3532 90.4462 15.3532C91.1725 15.3532 91.7816 15.6134 92.2619 16.1221C92.7422 16.6307 92.9765 17.234 92.9765 17.9082V25.0646L91.0319 28.1283C91.1491 26.3067 91.7231 24.5678 92.7656 22.8881C93.8082 21.2084 95.1436 19.7062 96.7718 18.3695C98.4001 17.0329 100.216 15.9801 102.207 15.2231C104.199 14.4542 106.213 14.0757 108.24 14.0757Z" fill="white"/>
<path d="M86.862 69.1069C90.6114 68.5314 93.34 66.0221 92.9565 63.5024C92.5731 60.9827 89.2228 59.4067 85.4734 59.9823C81.724 60.5578 78.9954 63.067 79.3789 65.5867C79.7623 68.1064 83.1126 69.6825 86.862 69.1069Z" fill="white"/>
<path d="M117.083 57.4306C120.832 56.8551 123.561 54.3459 123.177 51.8262C122.794 49.3065 119.443 47.7304 115.694 48.306C111.945 48.8816 109.216 51.3908 109.6 53.9105C109.983 56.4302 113.333 58.0062 117.083 57.4306Z" fill="white"/>
</svg>
