<svg width="69" height="29" viewBox="0 0 69 29" fill="none" xmlns="http://www.w3.org/2000/svg">
<path d="M0.951492 1.82505C0.695999 1.82505 0.475746 1.74047 0.286329 1.56687C0.0969112 1.39772 0 1.18406 0 0.925879C0 0.649896 0.0969112 0.427329 0.286329 0.258178C0.475746 0.0890268 0.700404 0 0.951492 0H16.0168C16.2899 0 16.5234 0.0845755 16.7128 0.258178C16.9022 0.427329 16.9991 0.654347 16.9991 0.93033C16.9991 1.20631 16.9022 1.42888 16.7128 1.58913C16.5234 1.74938 16.2899 1.8295 16.0168 1.8295H0.951492V1.82505ZM8.50176 22.4348C8.20662 22.4348 7.96434 22.3368 7.77052 22.1454C7.57669 21.954 7.48419 21.727 7.48419 21.4733V1.05942H9.48408V21.4733C9.48408 21.7314 9.38717 21.954 9.19775 22.1454C9.00834 22.3368 8.77487 22.4348 8.50176 22.4348Z" fill="white"/>
<path d="M32.2482 14.3486C32.2482 15.9848 31.8904 17.4506 31.1703 18.755C30.4547 20.055 29.4764 21.0771 28.2355 21.8212C26.9945 22.5653 25.5815 22.9329 23.9963 22.9329C22.4112 22.9329 21.057 22.5608 19.807 21.8212C18.557 21.0771 17.5697 20.055 16.8405 18.755C16.1113 17.4551 15.749 15.9848 15.749 14.3486C15.749 12.7124 16.1113 11.2197 16.8405 9.92868C17.5697 8.63768 18.557 7.61563 19.807 6.86254C21.057 6.10945 22.4519 5.73291 23.9963 5.73291C25.5407 5.73291 26.9945 6.10945 28.2355 6.86254C29.4764 7.61563 30.4547 8.63768 31.1703 9.92868C31.8858 11.2197 32.2482 12.6945 32.2482 14.3486ZM30.2916 14.3486C30.2916 13.0352 30.0199 11.8697 29.4764 10.8476C28.9329 9.82558 28.1902 9.02318 27.2436 8.44492C26.2971 7.86217 25.2146 7.57529 24.0009 7.57529C22.7871 7.57529 21.7635 7.86666 20.8034 8.44492C19.8478 9.02767 19.0914 9.82558 18.5389 10.8476C17.9863 11.8697 17.7055 13.0352 17.7055 14.3486C17.7055 15.662 17.9818 16.823 18.5389 17.8361C19.0914 18.8492 19.8478 19.6471 20.8034 20.2388C21.759 20.8305 22.8233 21.1264 24.0009 21.1264C25.1784 21.1264 26.3016 20.8305 27.2436 20.2388C28.1902 19.6471 28.9329 18.8447 29.4764 17.8361C30.0199 16.823 30.2916 15.662 30.2916 14.3486Z" fill="white"/>
<path d="M61.9903 22.9329C60.3671 22.9329 58.9369 22.5789 57.6954 21.8663C56.4539 21.1582 55.4843 20.1678 54.7912 18.8995C54.098 17.6313 53.7471 16.1479 53.7471 14.4449C53.7471 12.6165 54.098 11.0569 54.8043 9.76626C55.5107 8.47559 56.4276 7.48069 57.5506 6.78158C58.6781 6.08247 59.8714 5.73291 61.1348 5.73291C62.0605 5.73291 62.9599 5.89873 63.8373 6.23484C64.7103 6.56647 65.4912 7.06391 66.1756 7.71821C66.8599 8.37251 67.4083 9.1747 67.8163 10.1203C68.2287 11.0659 68.4524 12.1639 68.4963 13.4097C68.4744 13.6696 68.3691 13.8892 68.1804 14.073C67.9918 14.2567 67.768 14.3463 67.518 14.3463H54.8526L54.4753 12.603H66.9213L66.509 12.9885V12.3431C66.4037 11.3303 66.079 10.4788 65.5307 9.7797C64.9823 9.08059 64.3242 8.54281 63.5565 8.16636C62.7888 7.78992 61.9815 7.60169 61.1392 7.60169C60.5075 7.60169 59.8582 7.73166 59.1958 7.9871C58.5333 8.24703 57.9323 8.65036 57.3971 9.19711C56.8619 9.74385 56.4232 10.443 56.0854 11.2944C55.7476 12.1459 55.5809 13.1498 55.5809 14.3105C55.5809 15.5788 55.8353 16.7305 56.3398 17.7612C56.8443 18.792 57.577 19.6121 58.5333 20.2126C59.4897 20.8131 60.6347 21.1179 61.9596 21.1179C62.6966 21.1179 63.3547 21.0103 63.9338 20.7952C64.5129 20.5801 65.0305 20.2933 65.4824 19.9393C65.9343 19.5852 66.3072 19.2132 66.6055 18.8278C66.838 18.6351 67.0574 18.5365 67.2679 18.5365C67.5004 18.5365 67.6935 18.6217 67.8514 18.7965C68.0093 18.9668 68.0883 19.164 68.0883 19.3791C68.0883 19.639 67.983 19.8631 67.7724 20.0558C67.1407 20.8311 66.3203 21.5033 65.3069 22.0724C64.2979 22.6416 63.1924 22.9284 61.9903 22.9284V22.9329Z" fill="white"/>
<path d="M44.0888 5.73291C45.6013 5.73291 46.8085 6.04128 47.7151 6.65319C48.6217 7.2651 49.2706 8.09865 49.6714 9.14902C50.0722 10.1994 50.2726 11.3654 50.2726 12.6374V21.0657C50.2726 21.3451 50.1676 21.586 49.9624 21.7932C49.7573 22.0004 49.5139 22.1064 49.242 22.1064C48.9223 22.1064 48.6646 22.0004 48.469 21.7932C48.2733 21.586 48.1779 21.3403 48.1779 21.0657V12.7434C48.1779 11.8183 48.03 10.9751 47.7294 10.209C47.4336 9.44775 46.9516 8.84065 46.2884 8.38774C45.6252 7.93483 44.7425 7.71319 43.645 7.71319C42.6621 7.71319 41.7269 7.93965 40.8442 8.38774C39.9614 8.84065 39.2457 9.44775 38.697 10.209C38.1483 10.9703 37.8715 11.8183 37.8715 12.7434V26.0704C37.8715 26.3499 37.7666 26.5908 37.5614 26.798C37.3562 27.0051 37.1129 27.1111 36.8409 27.1111C36.5212 27.1111 36.2635 27.0051 36.0679 26.798C35.8723 26.5908 35.7769 26.345 35.7769 26.0704V7.29401C35.7769 7.01455 35.8818 6.77364 36.087 6.56646C36.2922 6.35928 36.5451 6.25328 36.8409 6.25328C37.1367 6.25328 37.3848 6.35928 37.5805 6.56646C37.7761 6.77364 37.8715 7.01937 37.8715 7.29401V10.209L37.0795 11.4569C37.1272 10.7149 37.361 10.0067 37.7856 9.32247C38.2103 8.63829 38.7543 8.02638 39.4175 7.48192C40.0807 6.93746 40.8203 6.50864 41.6315 6.20028C42.4426 5.88709 43.2633 5.73291 44.0888 5.73291Z" fill="white"/>
<path d="M35.3812 28.1492C36.9084 27.9147 38.0199 26.8927 37.8637 25.8663C37.7075 24.84 36.3428 24.198 34.8156 24.4324C33.2884 24.6669 32.1769 25.689 32.3331 26.7153C32.4893 27.7416 33.854 28.3836 35.3812 28.1492Z" fill="white"/>
<path d="M47.6908 23.3928C49.218 23.1584 50.3294 22.1363 50.1732 21.11C50.0171 20.0836 48.6524 19.4416 47.1252 19.6761C45.5979 19.9105 44.4865 20.9326 44.6427 21.9589C44.7989 22.9853 46.1635 23.6273 47.6908 23.3928Z" fill="white"/>
</svg>
